{
    "asset" : {
        "generator" : "Khronos glTF Blender I/O v1.5.17",
        "version" : "2.0"
    },
    "scene" : 0,
    "scenes" : [
        {
            "name" : "Scene",
            "nodes" : [
                0,
                1,
                2,
                3
            ]
        }
    ],
    "nodes" : [
        {
            "mesh" : 0,
            "name" : "Part1"
        },
        {
            "mesh" : 1,
            "name" : "Part2",
            "translation" : [
                0,
                1.2748746871948242,
                0
            ]
        },
        {
            "mesh" : 2,
            "name" : "Part3",
            "rotation" : [
                0.7071068286895752,
                0,
                0,
                0.7071068286895752
            ],
            "translation" : [
                0,
                1.2748746871948242,
                0.3412729501724243
            ]
        },
        {
            "mesh" : 3,
            "name" : "Part4",
            "rotation" : [
                0.7071068286895752,
                0,
                0,
                0.7071068286895752
            ],
            "translation" : [
                0,
                1.8472098112106323,
                0.3412729501724243
            ]
        }
    ],
    "animations" : [
        {
            "channels" : [
                {
                    "sampler" : 0,
                    "target" : {
                        "node" : 0,
                        "path" : "translation"
                    }
                }
            ],
            "name" : "Part1Action",
            "samplers" : [
                {
                    "input" : 15,
                    "interpolation" : "LINEAR",
                    "output" : 16
                }
            ]
        },
        {
            "channels" : [
                {
                    "sampler" : 0,
                    "target" : {
                        "node" : 1,
                        "path" : "translation"
                    }
                }
            ],
            "name" : "Part2Action",
            "samplers" : [
                {
                    "input" : 15,
                    "interpolation" : "LINEAR",
                    "output" : 17
                }
            ]
        },
        {
            "channels" : [
                {
                    "sampler" : 0,
                    "target" : {
                        "node" : 2,
                        "path" : "translation"
                    }
                }
            ],
            "name" : "Part3Action",
            "samplers" : [
                {
                    "input" : 15,
                    "interpolation" : "LINEAR",
                    "output" : 18
                }
            ]
        },
        {
            "channels" : [
                {
                    "sampler" : 0,
                    "target" : {
                        "node" : 3,
                        "path" : "translation"
                    }
                }
            ],
            "name" : "Part4Action",
            "samplers" : [
                {
                    "input" : 15,
                    "interpolation" : "LINEAR",
                    "output" : 19
                }
            ]
        }
    ],
    "meshes" : [
        {
            "name" : "Cube",
            "primitives" : [
                {
                    "attributes" : {
                        "POSITION" : 0,
                        "NORMAL" : 1,
                        "TEXCOORD_0" : 2
                    },
                    "indices" : 3
                }
            ]
        },
        {
            "name" : "Cylinder",
            "primitives" : [
                {
                    "attributes" : {
                        "POSITION" : 4,
                        "NORMAL" : 5,
                        "TEXCOORD_0" : 6
                    },
                    "indices" : 7
                }
            ]
        },
        {
            "name" : "Cylinder.001",
            "primitives" : [
                {
                    "attributes" : {
                        "POSITION" : 8,
                        "NORMAL" : 9,
                        "TEXCOORD_0" : 10
                    },
                    "indices" : 11
                }
            ]
        },
        {
            "name" : "Cylinder.002",
            "primitives" : [
                {
                    "attributes" : {
                        "POSITION" : 12,
                        "NORMAL" : 13,
                        "TEXCOORD_0" : 14
                    },
                    "indices" : 11
                }
            ]
        }
    ],
    "accessors" : [
        {
            "bufferView" : 0,
            "componentType" : 5126,
            "count" : 138,
            "max" : [
                1,
                1,
                1
            ],
            "min" : [
                -1,
                -1,
                -1
            ],
            "type" : "VEC3"
        },
        {
            "bufferView" : 1,
            "componentType" : 5126,
            "count" : 138,
            "type" : "VEC3"
        },
        {
            "bufferView" : 2,
            "componentType" : 5126,
            "count" : 138,
            "type" : "VEC2"
        },
        {
            "bufferView" : 3,
            "componentType" : 5123,
            "count" : 240,
            "type" : "SCALAR"
        },
        {
            "bufferView" : 4,
            "componentType" : 5126,
            "count" : 130,
            "max" : [
                0.4399999976158142,
                0.8400000333786011,
                0.4399999976158142
            ],
            "min" : [
                -0.4399999976158142,
                -0.8400000333786011,
                -0.4399999976158142
            ],
            "type" : "VEC3"
        },
        {
            "bufferView" : 5,
            "componentType" : 5126,
            "count" : 130,
            "type" : "VEC3"
        },
        {
            "bufferView" : 6,
            "componentType" : 5126,
            "count" : 130,
            "type" : "VEC2"
        },
        {
            "bufferView" : 7,
            "componentType" : 5123,
            "count" : 372,
            "type" : "SCALAR"
        },
        {
            "bufferView" : 8,
            "componentType" : 5126,
            "count" : 130,
            "max" : [
                0.05304131284356117,
                0.24116021394729614,
                0.05304131284356117
            ],
            "min" : [
                -0.05304131284356117,
                -0.24116021394729614,
                -0.05304131284356117
            ],
            "type" : "VEC3"
        },
        {
            "bufferView" : 9,
            "componentType" : 5126,
            "count" : 130,
            "type" : "VEC3"
        },
        {
            "bufferView" : 10,
            "componentType" : 5126,
            "count" : 130,
            "type" : "VEC2"
        },
        {
            "bufferView" : 11,
            "componentType" : 5123,
            "count" : 372,
            "type" : "SCALAR"
        },
        {
            "bufferView" : 12,
            "componentType" : 5126,
            "count" : 130,
            "max" : [
                0.05304131284356117,
                0.24116021394729614,
                0.05304131284356117
            ],
            "min" : [
                -0.05304131284356117,
                -0.24116021394729614,
                -0.05304131284356117
            ],
            "type" : "VEC3"
        },
        {
            "bufferView" : 13,
            "componentType" : 5126,
            "count" : 130,
            "type" : "VEC3"
        },
        {
            "bufferView" : 14,
            "componentType" : 5126,
            "count" : 130,
            "type" : "VEC2"
        },
        {
            "bufferView" : 15,
            "componentType" : 5126,
            "count" : 200,
            "max" : [
                8.333333333333334
            ],
            "min" : [
                0.041666666666666664
            ],
            "type" : "SCALAR"
        },
        {
            "bufferView" : 16,
            "componentType" : 5126,
            "count" : 200,
            "type" : "VEC3"
        },
        {
            "bufferView" : 17,
            "componentType" : 5126,
            "count" : 200,
            "type" : "VEC3"
        },
        {
            "bufferView" : 18,
            "componentType" : 5126,
            "count" : 200,
            "type" : "VEC3"
        },
        {
            "bufferView" : 19,
            "componentType" : 5126,
            "count" : 200,
            "type" : "VEC3"
        }
    ],
    "bufferViews" : [
        {
            "buffer" : 0,
            "byteLength" : 1656,
            "byteOffset" : 0
        },
        {
            "buffer" : 0,
            "byteLength" : 1656,
            "byteOffset" : 1656
        },
        {
            "buffer" : 0,
            "byteLength" : 1104,
            "byteOffset" : 3312
        },
        {
            "buffer" : 0,
            "byteLength" : 480,
            "byteOffset" : 4416
        },
        {
            "buffer" : 0,
            "byteLength" : 1560,
            "byteOffset" : 4896
        },
        {
            "buffer" : 0,
            "byteLength" : 1560,
            "byteOffset" : 6456
        },
        {
            "buffer" : 0,
            "byteLength" : 1040,
            "byteOffset" : 8016
        },
        {
            "buffer" : 0,
            "byteLength" : 744,
            "byteOffset" : 9056
        },
        {
            "buffer" : 0,
            "byteLength" : 1560,
            "byteOffset" : 9800
        },
        {
            "buffer" : 0,
            "byteLength" : 1560,
            "byteOffset" : 11360
        },
        {
            "buffer" : 0,
            "byteLength" : 1040,
            "byteOffset" : 12920
        },
        {
            "buffer" : 0,
            "byteLength" : 744,
            "byteOffset" : 13960
        },
        {
            "buffer" : 0,
            "byteLength" : 1560,
            "byteOffset" : 14704
        },
        {
            "buffer" : 0,
            "byteLength" : 1560,
            "byteOffset" : 16264
        },
        {
            "buffer" : 0,
            "byteLength" : 1040,
            "byteOffset" : 17824
        },
        {
            "buffer" : 0,
            "byteLength" : 800,
            "byteOffset" : 18864
        },
        {
            "buffer" : 0,
            "byteLength" : 2400,
            "byteOffset" : 19664
        },
        {
            "buffer" : 0,
            "byteLength" : 2400,
            "byteOffset" : 22064
        },
        {
            "buffer" : 0,
            "byteLength" : 2400,
            "byteOffset" : 24464
        },
        {
            "buffer" : 0,
            "byteLength" : 2400,
            "byteOffset" : 26864
        }
    ],
    "buffers" : [
        {
            "byteLength" : 29264,
            "uri" : "data:application/octet-stream;base64,"
        }
    ]
}
